<mxfile host="Electron" modified="2023-06-13T20:44:30.198Z" agent="Mozilla/5.0 (Windows NT 10.0; Win64; x64) AppleWebKit/537.36 (KHTML, like Gecko) draw.io/21.3.7 Chrome/112.0.5615.204 Electron/24.5.0 Safari/537.36" etag="BfLpYCegbXCX0eyjLP1Y" version="21.3.7" type="device">
  <diagram name="Page-1" id="8kIWOGsX5G2s9qzZLplj">
    <mxGraphModel dx="1951" dy="965" grid="1" gridSize="10" guides="1" tooltips="1" connect="1" arrows="1" fold="1" page="1" pageScale="1" pageWidth="850" pageHeight="1100" math="0" shadow="0">
      <root>
        <mxCell id="0" />
        <mxCell id="1" parent="0" />
        <mxCell id="rNg2EFlrI3MOSEz9Saxy-4" value="" style="rounded=0;whiteSpace=wrap;html=1;strokeColor=#FFFFFF;" parent="1" vertex="1">
          <mxGeometry x="20" y="150" width="1500" height="530" as="geometry" />
        </mxCell>
        <mxCell id="bj3e3nzDXusCV7zQIcoZ-6" value="POD_Basics" style="swimlane;fontStyle=1;childLayout=stackLayout;horizontal=1;startSize=26;fillColor=none;horizontalStack=0;resizeParent=1;resizeParentMax=0;resizeLast=0;collapsible=1;marginBottom=0;whiteSpace=wrap;html=1;" parent="1" vertex="1">
          <mxGeometry x="340" y="289" width="260" height="156" as="geometry" />
        </mxCell>
        <mxCell id="bj3e3nzDXusCV7zQIcoZ-7" value="__numPod : int" style="text;strokeColor=none;fillColor=none;align=left;verticalAlign=top;spacingLeft=4;spacingRight=4;overflow=hidden;rotatable=0;points=[[0,0.5],[1,0.5]];portConstraint=eastwest;whiteSpace=wrap;html=1;" parent="bj3e3nzDXusCV7zQIcoZ-6" vertex="1">
          <mxGeometry y="26" width="260" height="26" as="geometry" />
        </mxCell>
        <mxCell id="bj3e3nzDXusCV7zQIcoZ-11" value="_commands : POD_Commands" style="text;strokeColor=none;fillColor=none;align=left;verticalAlign=top;spacingLeft=4;spacingRight=4;overflow=hidden;rotatable=0;points=[[0,0.5],[1,0.5]];portConstraint=eastwest;whiteSpace=wrap;html=1;" parent="bj3e3nzDXusCV7zQIcoZ-6" vertex="1">
          <mxGeometry y="52" width="260" height="26" as="geometry" />
        </mxCell>
        <mxCell id="bj3e3nzDXusCV7zQIcoZ-10" value="_port : COM_io" style="text;strokeColor=none;fillColor=none;align=left;verticalAlign=top;spacingLeft=4;spacingRight=4;overflow=hidden;rotatable=0;points=[[0,0.5],[1,0.5]];portConstraint=eastwest;whiteSpace=wrap;html=1;" parent="bj3e3nzDXusCV7zQIcoZ-6" vertex="1">
          <mxGeometry y="78" width="260" height="26" as="geometry" />
        </mxCell>
        <mxCell id="bj3e3nzDXusCV7zQIcoZ-9" value="__MINBINARYLENGTH : int" style="text;strokeColor=none;fillColor=none;align=left;verticalAlign=top;spacingLeft=4;spacingRight=4;overflow=hidden;rotatable=0;points=[[0,0.5],[1,0.5]];portConstraint=eastwest;whiteSpace=wrap;html=1;" parent="bj3e3nzDXusCV7zQIcoZ-6" vertex="1">
          <mxGeometry y="104" width="260" height="26" as="geometry" />
        </mxCell>
        <mxCell id="bj3e3nzDXusCV7zQIcoZ-8" value="__MINSTANDARDLENGTH : int" style="text;strokeColor=none;fillColor=none;align=left;verticalAlign=top;spacingLeft=4;spacingRight=4;overflow=hidden;rotatable=0;points=[[0,0.5],[1,0.5]];portConstraint=eastwest;whiteSpace=wrap;html=1;" parent="bj3e3nzDXusCV7zQIcoZ-6" vertex="1">
          <mxGeometry y="130" width="260" height="26" as="geometry" />
        </mxCell>
        <mxCell id="bj3e3nzDXusCV7zQIcoZ-12" value="&lt;b&gt;POD_Commands&lt;/b&gt;" style="swimlane;fontStyle=0;childLayout=stackLayout;horizontal=1;startSize=26;fillColor=none;horizontalStack=0;resizeParent=1;resizeParentMax=0;resizeLast=0;collapsible=1;marginBottom=0;whiteSpace=wrap;html=1;" parent="1" vertex="1">
          <mxGeometry x="40" y="289" width="260" height="234" as="geometry" />
        </mxCell>
        <mxCell id="bj3e3nzDXusCV7zQIcoZ-13" value="__NAME : int" style="text;strokeColor=none;fillColor=none;align=left;verticalAlign=top;spacingLeft=4;spacingRight=4;overflow=hidden;rotatable=0;points=[[0,0.5],[1,0.5]];portConstraint=eastwest;whiteSpace=wrap;html=1;" parent="bj3e3nzDXusCV7zQIcoZ-12" vertex="1">
          <mxGeometry y="26" width="260" height="26" as="geometry" />
        </mxCell>
        <mxCell id="bj3e3nzDXusCV7zQIcoZ-14" value="__ARGUMENTS : int" style="text;strokeColor=none;fillColor=none;align=left;verticalAlign=top;spacingLeft=4;spacingRight=4;overflow=hidden;rotatable=0;points=[[0,0.5],[1,0.5]];portConstraint=eastwest;whiteSpace=wrap;html=1;" parent="bj3e3nzDXusCV7zQIcoZ-12" vertex="1">
          <mxGeometry y="52" width="260" height="26" as="geometry" />
        </mxCell>
        <mxCell id="bj3e3nzDXusCV7zQIcoZ-15" value="__RETURNS : int" style="text;strokeColor=none;fillColor=none;align=left;verticalAlign=top;spacingLeft=4;spacingRight=4;overflow=hidden;rotatable=0;points=[[0,0.5],[1,0.5]];portConstraint=eastwest;whiteSpace=wrap;html=1;" parent="bj3e3nzDXusCV7zQIcoZ-12" vertex="1">
          <mxGeometry y="78" width="260" height="26" as="geometry" />
        </mxCell>
        <mxCell id="bj3e3nzDXusCV7zQIcoZ-16" value="__BINARY : int" style="text;strokeColor=none;fillColor=none;align=left;verticalAlign=top;spacingLeft=4;spacingRight=4;overflow=hidden;rotatable=0;points=[[0,0.5],[1,0.5]];portConstraint=eastwest;whiteSpace=wrap;html=1;" parent="bj3e3nzDXusCV7zQIcoZ-12" vertex="1">
          <mxGeometry y="104" width="260" height="26" as="geometry" />
        </mxCell>
        <mxCell id="bj3e3nzDXusCV7zQIcoZ-18" value="__NOVALUE : int" style="text;strokeColor=none;fillColor=none;align=left;verticalAlign=top;spacingLeft=4;spacingRight=4;overflow=hidden;rotatable=0;points=[[0,0.5],[1,0.5]];portConstraint=eastwest;whiteSpace=wrap;html=1;" parent="bj3e3nzDXusCV7zQIcoZ-12" vertex="1">
          <mxGeometry y="130" width="260" height="26" as="geometry" />
        </mxCell>
        <mxCell id="bj3e3nzDXusCV7zQIcoZ-17" value="__U8 : int" style="text;strokeColor=none;fillColor=none;align=left;verticalAlign=top;spacingLeft=4;spacingRight=4;overflow=hidden;rotatable=0;points=[[0,0.5],[1,0.5]];portConstraint=eastwest;whiteSpace=wrap;html=1;" parent="bj3e3nzDXusCV7zQIcoZ-12" vertex="1">
          <mxGeometry y="156" width="260" height="26" as="geometry" />
        </mxCell>
        <mxCell id="bj3e3nzDXusCV7zQIcoZ-20" value="__U16 : int" style="text;strokeColor=none;fillColor=none;align=left;verticalAlign=top;spacingLeft=4;spacingRight=4;overflow=hidden;rotatable=0;points=[[0,0.5],[1,0.5]];portConstraint=eastwest;whiteSpace=wrap;html=1;" parent="bj3e3nzDXusCV7zQIcoZ-12" vertex="1">
          <mxGeometry y="182" width="260" height="26" as="geometry" />
        </mxCell>
        <mxCell id="bj3e3nzDXusCV7zQIcoZ-19" value="__commands : dict[int,list]" style="text;strokeColor=none;fillColor=none;align=left;verticalAlign=top;spacingLeft=4;spacingRight=4;overflow=hidden;rotatable=0;points=[[0,0.5],[1,0.5]];portConstraint=eastwest;whiteSpace=wrap;html=1;" parent="bj3e3nzDXusCV7zQIcoZ-12" vertex="1">
          <mxGeometry y="208" width="260" height="26" as="geometry" />
        </mxCell>
        <mxCell id="bj3e3nzDXusCV7zQIcoZ-21" value="&lt;b&gt;POD_8401HR&lt;/b&gt;" style="swimlane;fontStyle=0;childLayout=stackLayout;horizontal=1;startSize=26;fillColor=none;horizontalStack=0;resizeParent=1;resizeParentMax=0;resizeLast=0;collapsible=1;marginBottom=0;whiteSpace=wrap;html=1;" parent="1" vertex="1">
          <mxGeometry x="640" y="470" width="260" height="156" as="geometry" />
        </mxCell>
        <mxCell id="bj3e3nzDXusCV7zQIcoZ-22" value="__B5LENGTH : int" style="text;strokeColor=none;fillColor=none;align=left;verticalAlign=top;spacingLeft=4;spacingRight=4;overflow=hidden;rotatable=0;points=[[0,0.5],[1,0.5]];portConstraint=eastwest;whiteSpace=wrap;html=1;shadow=1;" parent="bj3e3nzDXusCV7zQIcoZ-21" vertex="1">
          <mxGeometry y="26" width="260" height="26" as="geometry" />
        </mxCell>
        <mxCell id="bj3e3nzDXusCV7zQIcoZ-24" value="_preampGain : int" style="text;strokeColor=none;fillColor=none;align=left;verticalAlign=top;spacingLeft=4;spacingRight=4;overflow=hidden;rotatable=0;points=[[0,0.5],[1,0.5]];portConstraint=eastwest;whiteSpace=wrap;html=1;" parent="bj3e3nzDXusCV7zQIcoZ-21" vertex="1">
          <mxGeometry y="52" width="260" height="26" as="geometry" />
        </mxCell>
        <mxCell id="bj3e3nzDXusCV7zQIcoZ-30" value="_ssGain : int" style="text;strokeColor=none;fillColor=none;align=left;verticalAlign=top;spacingLeft=4;spacingRight=4;overflow=hidden;rotatable=0;points=[[0,0.5],[1,0.5]];portConstraint=eastwest;whiteSpace=wrap;html=1;" parent="bj3e3nzDXusCV7zQIcoZ-21" vertex="1">
          <mxGeometry y="78" width="260" height="26" as="geometry" />
        </mxCell>
        <mxCell id="bj3e3nzDXusCV7zQIcoZ-29" value="_channelMap : dict[str,str]" style="text;strokeColor=none;fillColor=none;align=left;verticalAlign=top;spacingLeft=4;spacingRight=4;overflow=hidden;rotatable=0;points=[[0,0.5],[1,0.5]];portConstraint=eastwest;whiteSpace=wrap;html=1;" parent="bj3e3nzDXusCV7zQIcoZ-21" vertex="1">
          <mxGeometry y="104" width="260" height="26" as="geometry" />
        </mxCell>
        <mxCell id="bj3e3nzDXusCV7zQIcoZ-23" value="__B5BINARYLENGTH : int" style="text;strokeColor=none;fillColor=none;align=left;verticalAlign=top;spacingLeft=4;spacingRight=4;overflow=hidden;rotatable=0;points=[[0,0.5],[1,0.5]];portConstraint=eastwest;whiteSpace=wrap;html=1;" parent="bj3e3nzDXusCV7zQIcoZ-21" vertex="1">
          <mxGeometry y="130" width="260" height="26" as="geometry" />
        </mxCell>
        <mxCell id="bj3e3nzDXusCV7zQIcoZ-31" value="&lt;b&gt;POD_Packets&lt;/b&gt;" style="swimlane;fontStyle=0;childLayout=stackLayout;horizontal=1;startSize=26;fillColor=none;horizontalStack=0;resizeParent=1;resizeParentMax=0;resizeLast=0;collapsible=1;marginBottom=0;whiteSpace=wrap;html=1;" parent="1" vertex="1">
          <mxGeometry x="40" y="539" width="260" height="52" as="geometry" />
        </mxCell>
        <mxCell id="bj3e3nzDXusCV7zQIcoZ-35" value="&lt;b&gt;COM_io&lt;/b&gt;" style="swimlane;fontStyle=0;childLayout=stackLayout;horizontal=1;startSize=26;fillColor=none;horizontalStack=0;resizeParent=1;resizeParentMax=0;resizeLast=0;collapsible=1;marginBottom=0;whiteSpace=wrap;html=1;" parent="1" vertex="1">
          <mxGeometry x="40" y="609" width="260" height="52" as="geometry" />
        </mxCell>
        <mxCell id="bj3e3nzDXusCV7zQIcoZ-36" value="__serialInst :&amp;nbsp;Serial" style="text;strokeColor=none;fillColor=none;align=left;verticalAlign=top;spacingLeft=4;spacingRight=4;overflow=hidden;rotatable=0;points=[[0,0.5],[1,0.5]];portConstraint=eastwest;whiteSpace=wrap;html=1;shadow=1;" parent="bj3e3nzDXusCV7zQIcoZ-35" vertex="1">
          <mxGeometry y="26" width="260" height="26" as="geometry" />
        </mxCell>
        <mxCell id="bj3e3nzDXusCV7zQIcoZ-39" value="Setup_8206HR" style="swimlane;fontStyle=1;childLayout=stackLayout;horizontal=1;startSize=26;fillColor=none;horizontalStack=0;resizeParent=1;resizeParentMax=0;resizeLast=0;collapsible=1;marginBottom=0;whiteSpace=wrap;html=1;" parent="1" vertex="1">
          <mxGeometry x="940" y="350" width="260" height="104" as="geometry" />
        </mxCell>
        <mxCell id="bj3e3nzDXusCV7zQIcoZ-40" value="_PARAMKEYS : list[str]" style="text;strokeColor=none;fillColor=none;align=left;verticalAlign=top;spacingLeft=4;spacingRight=4;overflow=hidden;rotatable=0;points=[[0,0.5],[1,0.5]];portConstraint=eastwest;whiteSpace=wrap;html=1;shadow=1;" parent="bj3e3nzDXusCV7zQIcoZ-39" vertex="1">
          <mxGeometry y="26" width="260" height="26" as="geometry" />
        </mxCell>
        <mxCell id="bj3e3nzDXusCV7zQIcoZ-41" value="_LOWPASSKEYS : list[str]" style="text;strokeColor=none;fillColor=none;align=left;verticalAlign=top;spacingLeft=4;spacingRight=4;overflow=hidden;rotatable=0;points=[[0,0.5],[1,0.5]];portConstraint=eastwest;whiteSpace=wrap;html=1;" parent="bj3e3nzDXusCV7zQIcoZ-39" vertex="1">
          <mxGeometry y="52" width="260" height="26" as="geometry" />
        </mxCell>
        <mxCell id="bj3e3nzDXusCV7zQIcoZ-42" value="_PHYSICAL_BOUND_uV : int" style="text;strokeColor=none;fillColor=none;align=left;verticalAlign=top;spacingLeft=4;spacingRight=4;overflow=hidden;rotatable=0;points=[[0,0.5],[1,0.5]];portConstraint=eastwest;whiteSpace=wrap;html=1;" parent="bj3e3nzDXusCV7zQIcoZ-39" vertex="1">
          <mxGeometry y="78" width="260" height="26" as="geometry" />
        </mxCell>
        <mxCell id="bj3e3nzDXusCV7zQIcoZ-44" value="Setup_PodDevices" style="swimlane;fontStyle=1;childLayout=stackLayout;horizontal=1;startSize=26;fillColor=none;horizontalStack=0;resizeParent=1;resizeParentMax=0;resizeLast=0;collapsible=1;marginBottom=0;whiteSpace=wrap;html=1;" parent="1" vertex="1">
          <mxGeometry x="1240" y="196" width="260" height="104" as="geometry" />
        </mxCell>
        <mxCell id="bj3e3nzDXusCV7zQIcoZ-45" value="_Setup_PodDevices : dict[str,Setup_Interface&lt;span style=&quot;background-color: initial;&quot;&gt;]&amp;nbsp;&lt;/span&gt;" style="text;strokeColor=none;fillColor=none;align=left;verticalAlign=top;spacingLeft=4;spacingRight=4;overflow=hidden;rotatable=0;points=[[0,0.5],[1,0.5]];portConstraint=eastwest;whiteSpace=wrap;html=1;shadow=1;" parent="bj3e3nzDXusCV7zQIcoZ-44" vertex="1">
          <mxGeometry y="26" width="260" height="26" as="geometry" />
        </mxCell>
        <mxCell id="bj3e3nzDXusCV7zQIcoZ-46" value="_saveFileName : str" style="text;strokeColor=none;fillColor=none;align=left;verticalAlign=top;spacingLeft=4;spacingRight=4;overflow=hidden;rotatable=0;points=[[0,0.5],[1,0.5]];portConstraint=eastwest;whiteSpace=wrap;html=1;" parent="bj3e3nzDXusCV7zQIcoZ-44" vertex="1">
          <mxGeometry y="52" width="260" height="26" as="geometry" />
        </mxCell>
        <mxCell id="bj3e3nzDXusCV7zQIcoZ-47" value="_options : dict[int,str]" style="text;strokeColor=none;fillColor=none;align=left;verticalAlign=top;spacingLeft=4;spacingRight=4;overflow=hidden;rotatable=0;points=[[0,0.5],[1,0.5]];portConstraint=eastwest;whiteSpace=wrap;html=1;" parent="bj3e3nzDXusCV7zQIcoZ-44" vertex="1">
          <mxGeometry y="78" width="260" height="26" as="geometry" />
        </mxCell>
        <mxCell id="bj3e3nzDXusCV7zQIcoZ-48" value="Setup_Interface" style="swimlane;fontStyle=1;childLayout=stackLayout;horizontal=1;startSize=26;fillColor=none;horizontalStack=0;resizeParent=1;resizeParentMax=0;resizeLast=0;collapsible=1;marginBottom=0;whiteSpace=wrap;html=1;" parent="1" vertex="1">
          <mxGeometry x="640" y="170" width="260" height="156" as="geometry" />
        </mxCell>
        <mxCell id="bj3e3nzDXusCV7zQIcoZ-49" value="_NAME : str" style="text;strokeColor=none;fillColor=none;align=left;verticalAlign=top;spacingLeft=4;spacingRight=4;overflow=hidden;rotatable=0;points=[[0,0.5],[1,0.5]];portConstraint=eastwest;whiteSpace=wrap;html=1;shadow=1;" parent="bj3e3nzDXusCV7zQIcoZ-48" vertex="1">
          <mxGeometry y="26" width="260" height="26" as="geometry" />
        </mxCell>
        <mxCell id="bj3e3nzDXusCV7zQIcoZ-52" value="_podParametersDict : dict[int, dict]" style="text;strokeColor=none;fillColor=none;align=left;verticalAlign=top;spacingLeft=4;spacingRight=4;overflow=hidden;rotatable=0;points=[[0,0.5],[1,0.5]];portConstraint=eastwest;whiteSpace=wrap;html=1;" parent="bj3e3nzDXusCV7zQIcoZ-48" vertex="1">
          <mxGeometry y="52" width="260" height="26" as="geometry" />
        </mxCell>
        <mxCell id="bj3e3nzDXusCV7zQIcoZ-3" value="_saveFileName : str" style="text;strokeColor=none;fillColor=none;align=left;verticalAlign=top;spacingLeft=4;spacingRight=4;overflow=hidden;rotatable=0;points=[[0,0.5],[1,0.5]];portConstraint=eastwest;whiteSpace=wrap;html=1;" parent="bj3e3nzDXusCV7zQIcoZ-48" vertex="1">
          <mxGeometry y="78" width="260" height="26" as="geometry" />
        </mxCell>
        <mxCell id="bj3e3nzDXusCV7zQIcoZ-51" value="_podDevices : dict[int,POD_Basics]" style="text;strokeColor=none;fillColor=none;align=left;verticalAlign=top;spacingLeft=4;spacingRight=4;overflow=hidden;rotatable=0;points=[[0,0.5],[1,0.5]];portConstraint=eastwest;whiteSpace=wrap;html=1;" parent="bj3e3nzDXusCV7zQIcoZ-48" vertex="1">
          <mxGeometry y="104" width="260" height="26" as="geometry" />
        </mxCell>
        <mxCell id="bj3e3nzDXusCV7zQIcoZ-50" value="_PORTKEY : str" style="text;strokeColor=none;fillColor=none;align=left;verticalAlign=top;spacingLeft=4;spacingRight=4;overflow=hidden;rotatable=0;points=[[0,0.5],[1,0.5]];portConstraint=eastwest;whiteSpace=wrap;html=1;shadow=1;" parent="bj3e3nzDXusCV7zQIcoZ-48" vertex="1">
          <mxGeometry y="130" width="260" height="26" as="geometry" />
        </mxCell>
        <mxCell id="bj3e3nzDXusCV7zQIcoZ-54" value="" style="endArrow=open;html=1;rounded=0;dashed=1;endFill=0;" parent="1" source="bj3e3nzDXusCV7zQIcoZ-44" target="bj3e3nzDXusCV7zQIcoZ-48" edge="1">
          <mxGeometry width="50" height="50" relative="1" as="geometry">
            <mxPoint x="520" y="579" as="sourcePoint" />
            <mxPoint x="180" y="469" as="targetPoint" />
          </mxGeometry>
        </mxCell>
        <mxCell id="bj3e3nzDXusCV7zQIcoZ-55" value="" style="endArrow=block;html=1;rounded=0;endFill=0;exitX=0;exitY=0.5;exitDx=0;exitDy=0;entryX=1.002;entryY=0.331;entryDx=0;entryDy=0;entryPerimeter=0;" parent="1" edge="1">
          <mxGeometry width="50" height="50" relative="1" as="geometry">
            <mxPoint x="640" y="400" as="sourcePoint" />
            <mxPoint x="600.52" y="399.606" as="targetPoint" />
          </mxGeometry>
        </mxCell>
        <mxCell id="bj3e3nzDXusCV7zQIcoZ-65" value="" style="endArrow=open;html=1;rounded=0;dashed=1;endFill=0;exitX=0;exitY=0.5;exitDx=0;exitDy=0;" parent="1" source="bj3e3nzDXusCV7zQIcoZ-6" edge="1">
          <mxGeometry width="50" height="50" relative="1" as="geometry">
            <mxPoint x="497" y="573" as="sourcePoint" />
            <mxPoint x="300" y="367" as="targetPoint" />
          </mxGeometry>
        </mxCell>
        <mxCell id="bj3e3nzDXusCV7zQIcoZ-25" value="POD_8206HR" style="swimlane;fontStyle=1;childLayout=stackLayout;horizontal=1;startSize=26;fillColor=none;horizontalStack=0;resizeParent=1;resizeParentMax=0;resizeLast=0;collapsible=1;marginBottom=0;whiteSpace=wrap;html=1;" parent="1" vertex="1">
          <mxGeometry x="640" y="350" width="260" height="104" as="geometry" />
        </mxCell>
        <mxCell id="bj3e3nzDXusCV7zQIcoZ-26" value="__B4LENGTH : int" style="text;strokeColor=none;fillColor=none;align=left;verticalAlign=top;spacingLeft=4;spacingRight=4;overflow=hidden;rotatable=0;points=[[0,0.5],[1,0.5]];portConstraint=eastwest;whiteSpace=wrap;html=1;shadow=1;" parent="bj3e3nzDXusCV7zQIcoZ-25" vertex="1">
          <mxGeometry y="26" width="260" height="26" as="geometry" />
        </mxCell>
        <mxCell id="bj3e3nzDXusCV7zQIcoZ-27" value="__B4BINARYLENGTH : int" style="text;strokeColor=none;fillColor=none;align=left;verticalAlign=top;spacingLeft=4;spacingRight=4;overflow=hidden;rotatable=0;points=[[0,0.5],[1,0.5]];portConstraint=eastwest;whiteSpace=wrap;html=1;" parent="bj3e3nzDXusCV7zQIcoZ-25" vertex="1">
          <mxGeometry y="52" width="260" height="26" as="geometry" />
        </mxCell>
        <mxCell id="bj3e3nzDXusCV7zQIcoZ-28" value="_preampGain : int" style="text;strokeColor=none;fillColor=none;align=left;verticalAlign=top;spacingLeft=4;spacingRight=4;overflow=hidden;rotatable=0;points=[[0,0.5],[1,0.5]];portConstraint=eastwest;whiteSpace=wrap;html=1;" parent="bj3e3nzDXusCV7zQIcoZ-25" vertex="1">
          <mxGeometry y="78" width="260" height="26" as="geometry" />
        </mxCell>
        <mxCell id="rNg2EFlrI3MOSEz9Saxy-2" value="" style="endArrow=open;html=1;rounded=0;dashed=1;endFill=0;entryX=1;entryY=0.5;entryDx=0;entryDy=0;" parent="1" target="bj3e3nzDXusCV7zQIcoZ-31" edge="1">
          <mxGeometry width="50" height="50" relative="1" as="geometry">
            <mxPoint x="320" y="565" as="sourcePoint" />
            <mxPoint x="310" y="377" as="targetPoint" />
          </mxGeometry>
        </mxCell>
        <mxCell id="e9Xbp3W30nfaAwJdSSRC-1" value="UserInput&lt;span style=&quot;color: rgb(230, 237, 243); font-family: ui-monospace, SFMono-Regular, &amp;quot;SF Mono&amp;quot;, Menlo, Consolas, &amp;quot;Liberation Mono&amp;quot;, monospace; font-weight: 400; text-align: start; background-color: rgba(46, 160, 67, 0.15);&quot;&gt; &lt;/span&gt;" style="swimlane;fontStyle=1;childLayout=stackLayout;horizontal=1;startSize=26;fillColor=none;horizontalStack=0;resizeParent=1;resizeParentMax=0;resizeLast=0;collapsible=1;marginBottom=0;whiteSpace=wrap;html=1;" parent="1" vertex="1">
          <mxGeometry x="40" y="220" width="260" height="52" as="geometry" />
        </mxCell>
        <mxCell id="e9Xbp3W30nfaAwJdSSRC-5" value="Setup_8401HR" style="swimlane;fontStyle=1;childLayout=stackLayout;horizontal=1;startSize=26;fillColor=none;horizontalStack=0;resizeParent=1;resizeParentMax=0;resizeLast=0;collapsible=1;marginBottom=0;whiteSpace=wrap;html=1;" parent="1" vertex="1">
          <mxGeometry x="940" y="461" width="260" height="104" as="geometry" />
        </mxCell>
        <mxCell id="e9Xbp3W30nfaAwJdSSRC-6" value="_PARAMKEYS : list[str]" style="text;strokeColor=none;fillColor=none;align=left;verticalAlign=top;spacingLeft=4;spacingRight=4;overflow=hidden;rotatable=0;points=[[0,0.5],[1,0.5]];portConstraint=eastwest;whiteSpace=wrap;html=1;shadow=1;" parent="e9Xbp3W30nfaAwJdSSRC-5" vertex="1">
          <mxGeometry y="26" width="260" height="26" as="geometry" />
        </mxCell>
        <mxCell id="e9Xbp3W30nfaAwJdSSRC-7" value="_CHANNELKEYS : list[str]" style="text;strokeColor=none;fillColor=none;align=left;verticalAlign=top;spacingLeft=4;spacingRight=4;overflow=hidden;rotatable=0;points=[[0,0.5],[1,0.5]];portConstraint=eastwest;whiteSpace=wrap;html=1;" parent="e9Xbp3W30nfaAwJdSSRC-5" vertex="1">
          <mxGeometry y="52" width="260" height="26" as="geometry" />
        </mxCell>
        <mxCell id="e9Xbp3W30nfaAwJdSSRC-8" value="_PHYSICAL_BOUND_uV : int" style="text;strokeColor=none;fillColor=none;align=left;verticalAlign=top;spacingLeft=4;spacingRight=4;overflow=hidden;rotatable=0;points=[[0,0.5],[1,0.5]];portConstraint=eastwest;whiteSpace=wrap;html=1;" parent="e9Xbp3W30nfaAwJdSSRC-5" vertex="1">
          <mxGeometry y="78" width="260" height="26" as="geometry" />
        </mxCell>
        <mxCell id="e9Xbp3W30nfaAwJdSSRC-9" value="" style="endArrow=open;html=1;rounded=0;dashed=1;endFill=0;exitX=0;exitY=0.75;exitDx=0;exitDy=0;" parent="1" source="e9Xbp3W30nfaAwJdSSRC-5" edge="1">
          <mxGeometry width="50" height="50" relative="1" as="geometry">
            <mxPoint x="670" y="552" as="sourcePoint" />
            <mxPoint x="900" y="539" as="targetPoint" />
          </mxGeometry>
        </mxCell>
        <mxCell id="e9Xbp3W30nfaAwJdSSRC-16" value="" style="endArrow=open;html=1;rounded=0;dashed=1;endFill=0;entryX=1;entryY=0.5;entryDx=0;entryDy=0;" parent="1" target="bj3e3nzDXusCV7zQIcoZ-35" edge="1">
          <mxGeometry width="50" height="50" relative="1" as="geometry">
            <mxPoint x="320" y="370" as="sourcePoint" />
            <mxPoint x="310" y="377" as="targetPoint" />
            <Array as="points">
              <mxPoint x="320" y="635" />
            </Array>
          </mxGeometry>
        </mxCell>
        <mxCell id="e9Xbp3W30nfaAwJdSSRC-17" value="" style="endArrow=open;html=1;rounded=0;dashed=1;endFill=0;" parent="1" source="bj3e3nzDXusCV7zQIcoZ-48" target="e9Xbp3W30nfaAwJdSSRC-1" edge="1">
          <mxGeometry width="50" height="50" relative="1" as="geometry">
            <mxPoint x="350" y="377" as="sourcePoint" />
            <mxPoint x="310" y="377" as="targetPoint" />
          </mxGeometry>
        </mxCell>
        <mxCell id="e9Xbp3W30nfaAwJdSSRC-18" value="" style="endArrow=none;html=1;rounded=0;entryX=0;entryY=0.5;entryDx=0;entryDy=0;" parent="1" edge="1" target="bj3e3nzDXusCV7zQIcoZ-21">
          <mxGeometry width="50" height="50" relative="1" as="geometry">
            <mxPoint x="620" y="400" as="sourcePoint" />
            <mxPoint x="640" y="500" as="targetPoint" />
            <Array as="points">
              <mxPoint x="620" y="548" />
            </Array>
          </mxGeometry>
        </mxCell>
        <mxCell id="e9Xbp3W30nfaAwJdSSRC-19" value="" style="endArrow=open;html=1;rounded=0;dashed=1;endFill=0;entryX=1;entryY=0.5;entryDx=0;entryDy=0;" parent="1" target="bj3e3nzDXusCV7zQIcoZ-39" edge="1">
          <mxGeometry width="50" height="50" relative="1" as="geometry">
            <mxPoint x="1220" y="402" as="sourcePoint" />
            <mxPoint x="610" y="198" as="targetPoint" />
          </mxGeometry>
        </mxCell>
        <mxCell id="e9Xbp3W30nfaAwJdSSRC-20" value="" style="endArrow=open;html=1;rounded=0;dashed=1;endFill=0;entryX=1;entryY=0.5;entryDx=0;entryDy=0;" parent="1" target="e9Xbp3W30nfaAwJdSSRC-5" edge="1">
          <mxGeometry width="50" height="50" relative="1" as="geometry">
            <mxPoint x="1220" y="250" as="sourcePoint" />
            <mxPoint x="1167" y="325" as="targetPoint" />
            <Array as="points">
              <mxPoint x="1220" y="513" />
            </Array>
          </mxGeometry>
        </mxCell>
        <mxCell id="e9Xbp3W30nfaAwJdSSRC-23" value="" style="endArrow=classic;html=1;rounded=0;exitX=0;exitY=0.5;exitDx=0;exitDy=0;entryX=1;entryY=0.5;entryDx=0;entryDy=0;" parent="1" source="e9Xbp3W30nfaAwJdSSRC-5" target="bj3e3nzDXusCV7zQIcoZ-51" edge="1">
          <mxGeometry width="50" height="50" relative="1" as="geometry">
            <mxPoint x="690" y="430" as="sourcePoint" />
            <mxPoint x="740" y="380" as="targetPoint" />
            <Array as="points">
              <mxPoint x="920" y="513" />
              <mxPoint x="920" y="287" />
            </Array>
          </mxGeometry>
        </mxCell>
        <mxCell id="e9Xbp3W30nfaAwJdSSRC-24" value="" style="endArrow=open;html=1;rounded=0;dashed=1;endFill=0;exitX=-0.004;exitY=1;exitDx=0;exitDy=0;entryX=1;entryY=0.75;entryDx=0;entryDy=0;exitPerimeter=0;" parent="1" source="bj3e3nzDXusCV7zQIcoZ-41" edge="1" target="bj3e3nzDXusCV7zQIcoZ-25">
          <mxGeometry width="50" height="50" relative="1" as="geometry">
            <mxPoint x="350" y="377" as="sourcePoint" />
            <mxPoint x="900" y="393" as="targetPoint" />
          </mxGeometry>
        </mxCell>
        <mxCell id="e9Xbp3W30nfaAwJdSSRC-26" value="" style="endArrow=none;html=1;rounded=0;entryX=0;entryY=0.5;entryDx=0;entryDy=0;" parent="1" target="bj3e3nzDXusCV7zQIcoZ-39" edge="1">
          <mxGeometry width="50" height="50" relative="1" as="geometry">
            <mxPoint x="920" y="402" as="sourcePoint" />
            <mxPoint x="870" y="480" as="targetPoint" />
          </mxGeometry>
        </mxCell>
        <mxCell id="e9Xbp3W30nfaAwJdSSRC-27" value="" style="endArrow=open;html=1;rounded=0;dashed=1;endFill=0;entryX=0.5;entryY=0;entryDx=0;entryDy=0;" parent="1" target="bj3e3nzDXusCV7zQIcoZ-6" edge="1">
          <mxGeometry width="50" height="50" relative="1" as="geometry">
            <mxPoint x="470" y="250" as="sourcePoint" />
            <mxPoint x="310" y="196" as="targetPoint" />
          </mxGeometry>
        </mxCell>
      </root>
    </mxGraphModel>
  </diagram>
</mxfile>
